<?xml version="1.0" encoding="UTF-8" standalone="no"?><!-- Generator: Gravit.io --><svg xmlns="http://www.w3.org/2000/svg" xmlns:xlink="http://www.w3.org/1999/xlink" style="isolation:isolate" viewBox="488 151 512 512" width="512pt" height="512pt"><defs><clipPath id="_clipPath_w09GjM5nmIMpxLj87XkFgJw9GBelLEq3"><rect x="488" y="151" width="512" height="512"/></clipPath></defs><g clip-path="url(#_clipPath_w09GjM5nmIMpxLj87XkFgJw9GBelLEq3)"><path d="M 492 151 L 996 151 C 998.208 151 1000 152.792 1000 155 L 1000 659 C 1000 661.208 998.208 663 996 663 L 492 663 C 489.792 663 488 661.208 488 659 L 488 155 C 488 152.792 489.792 151 492 151 Z" style="stroke:none;fill:#000000;stroke-miterlimit:10;"/><polygon points="743.04,524.423,670,399.239,814.933,398.577" fill="rgb(33,191,115)" fill-opacity="0.6"/><path d="M 670 289.58 L 670 289.58 C 710.842 289.58 744 322.738 744 363.58 L 744 363.58 C 744 404.422 710.842 437.58 670 437.58 L 670 437.58 C 629.158 437.58 596 404.422 596 363.58 L 596 363.58 C 596 322.738 629.158 289.58 670 289.58 Z" style="stroke:none;fill:#FDDB3A;stroke-miterlimit:10;opacity:0.6;"/><path d="M 818 289.58 L 818 289.58 C 858.842 289.58 892 322.738 892 363.58 L 892 363.58 C 892 404.422 858.842 437.58 818 437.58 L 818 437.58 C 777.158 437.58 744 404.422 744 363.58 L 744 363.58 C 744 322.738 777.158 289.58 818 289.58 Z" style="stroke:none;fill:#FDDB3A;stroke-miterlimit:10;opacity:0.6;"/></g></svg>