<?xml version="1.0" encoding="UTF-8" standalone="no"?><!-- Generator: Gravit.io --><svg xmlns="http://www.w3.org/2000/svg" xmlns:xlink="http://www.w3.org/1999/xlink" style="isolation:isolate" viewBox="631.253 283.54 296 234.847" width="296pt" height="234.847pt"><defs><clipPath id="_clipPath_KuA9lWWfxaJVVUXoHpcasgVzWE8uWvP1"><rect x="631.253" y="283.54" width="296" height="234.847"/></clipPath></defs><g clip-path="url(#_clipPath_KuA9lWWfxaJVVUXoHpcasgVzWE8uWvP1)"><polygon points="778.293,518.387,705.253,393.202,850.186,392.54" fill="rgb(33,191,115)" fill-opacity="0.6"/><path d="M 705.25 283.54 L 705.25 283.54 C 746.092 283.54 779.25 316.698 779.25 357.54 L 779.25 357.54 C 779.25 398.382 746.092 431.54 705.25 431.54 L 705.25 431.54 C 664.408 431.54 631.25 398.382 631.25 357.54 L 631.25 357.54 C 631.25 316.698 664.408 283.54 705.25 283.54 Z" style="stroke:none;fill:#FDDB3A;stroke-miterlimit:10;opacity:0.6;"/><path d="M 853.25 283.54 L 853.25 283.54 C 894.092 283.54 927.25 316.698 927.25 357.54 L 927.25 357.54 C 927.25 398.382 894.092 431.54 853.25 431.54 L 853.25 431.54 C 812.408 431.54 779.25 398.382 779.25 357.54 L 779.25 357.54 C 779.25 316.698 812.408 283.54 853.25 283.54 Z" style="stroke:none;fill:#FDDB3A;stroke-miterlimit:10;opacity:0.6;"/></g></svg>